<svg width="32" height="32" viewBox="0 0 32 32" fill="none" xmlns="http://www.w3.org/2000/svg">
  <!-- Sun circle -->
  <circle cx="16" cy="16" r="8" fill="#F9A825"/>
  
  <!-- Sun rays -->
  <rect x="15" y="2" width="2" height="4" fill="#F9A825"/>
  <rect x="15" y="26" width="2" height="4" fill="#F9A825"/>
  <rect x="2" y="15" width="4" height="2" fill="#F9A825"/>
  <rect x="26" y="15" width="4" height="2" fill="#F9A825"/>
  
  <!-- Diagonal rays -->
  <rect x="20.5" y="4.5" width="2" height="3" fill="#F9A825" transform="rotate(45 21.5 6)"/>
  <rect x="9.5" y="24.5" width="2" height="3" fill="#F9A825" transform="rotate(45 10.5 26)"/>
  <rect x="4.5" y="9.5" width="3" height="2" fill="#F9A825" transform="rotate(45 6 10.5)"/>
  <rect x="24.5" y="20.5" width="3" height="2" fill="#F9A825" transform="rotate(45 26 21.5)"/>
  
  <!-- Face -->
  <circle cx="14" cy="14" r="1" fill="#263238"/>
  <circle cx="18" cy="14" r="1" fill="#263238"/>
  <path d="M13 18 Q16 21 19 18" stroke="#263238" stroke-width="1.5" fill="none"/>
</svg>